<svg xmlns="http://www.w3.org/2000/svg" viewBox="0 0 131 50">
  <defs>
    <style>
      .cls-1 {
        fill: #fff;
      }
    </style>
  </defs>
  <g id="_Layer_" data-name="&lt;Layer&gt;">
    <g>
      <path class="cls-1" d="M45.41,30.1a4.77,4.77,0,0,1-1.72-.32,4.08,4.08,0,0,1-1.42-1l.52-.93a3.79,3.79,0,0,0,1.23.87,3.64,3.64,0,0,0,1.47.29,1.77,1.77,0,0,0,1.28-.45,1.56,1.56,0,0,0,.47-1.22,1.39,1.39,0,0,0-.41-1.07,6.11,6.11,0,0,0-1.71-.9A5.48,5.48,0,0,1,43,24.22a2.39,2.39,0,0,1-.57-1.68,2.44,2.44,0,0,1,.74-1.91,2.87,2.87,0,0,1,2-.67,4.11,4.11,0,0,1,1.61.33,3.56,3.56,0,0,1,1.33.95l-.49.93a3.91,3.91,0,0,0-1.19-.87,3,3,0,0,0-1.29-.3,1.6,1.6,0,0,0-1.11.37,1.39,1.39,0,0,0-.41,1.08,1.31,1.31,0,0,0,.44,1,7,7,0,0,0,1.8.89,5.19,5.19,0,0,1,2,1.15,2.41,2.41,0,0,1,.56,1.67,2.77,2.77,0,0,1-.86,2.15A3.11,3.11,0,0,1,45.41,30.1Z"/>
      <path class="cls-1" d="M54.07,30.12A2.6,2.6,0,0,1,52,29.24a4,4,0,0,1-.74-2.58V23.39A4.09,4.09,0,0,1,52,20.77a3,3,0,0,1,4.26,0,4.15,4.15,0,0,1,.73,2.62v3.27a4,4,0,0,1-.73,2.58A2.62,2.62,0,0,1,54.07,30.12Zm0-1a1.48,1.48,0,0,0,1.3-.55,3.33,3.33,0,0,0,.39-1.85V23.36a3.41,3.41,0,0,0-.39-1.89,1.46,1.46,0,0,0-1.3-.56,1.49,1.49,0,0,0-1.3.56,3.52,3.52,0,0,0-.38,1.89v3.33a3.43,3.43,0,0,0,.38,1.85A1.51,1.51,0,0,0,54.07,29.09Z"/>
      <path class="cls-1" d="M60.44,30V20h1.17v9h3.65v1Z"/>
      <path class="cls-1" d="M70.54,30.12a2.4,2.4,0,0,1-2-.84,4.15,4.15,0,0,1-.66-2.58V20H69v6.75a3.59,3.59,0,0,0,.34,1.82,1.3,1.3,0,0,0,1.16.52,1.31,1.31,0,0,0,1.17-.52A3.61,3.61,0,0,0,72,26.75V20h1.18v6.7a4.15,4.15,0,0,1-.66,2.58A2.42,2.42,0,0,1,70.54,30.12Z"/>
      <path class="cls-1" d="M78.83,30V21H76.3V20h6.26v1H80v9Z"/>
      <path class="cls-1" d="M85.78,30V29h2.09V21H85.78V20h5.35v1H89V29h2.09v1Z"/>
      <path class="cls-1" d="M97.19,30.12a2.61,2.61,0,0,1-2.13-.88,4,4,0,0,1-.74-2.58V23.39a4.09,4.09,0,0,1,.74-2.62,2.63,2.63,0,0,1,2.14-.89,2.61,2.61,0,0,1,2.12.89,4.09,4.09,0,0,1,.73,2.62v3.27a4,4,0,0,1-.73,2.58A2.61,2.61,0,0,1,97.19,30.12Zm0-1a1.51,1.51,0,0,0,1.3-.55,3.43,3.43,0,0,0,.38-1.85V23.36a3.52,3.52,0,0,0-.38-1.89,1.49,1.49,0,0,0-1.3-.56,1.46,1.46,0,0,0-1.3.56,3.41,3.41,0,0,0-.39,1.89v3.33a3.33,3.33,0,0,0,.39,1.85A1.48,1.48,0,0,0,97.19,29.09Z"/>
      <path class="cls-1" d="M107.35,30l-2.7-8.58V30h-1V20h1.54l2.78,8.64V20h1V30Z"/>
      <path class="cls-1" d="M115.37,30.1a4.76,4.76,0,0,1-1.71-.32,4.12,4.12,0,0,1-1.43-1l.53-.93a3.79,3.79,0,0,0,1.23.87,3.57,3.57,0,0,0,1.47.29,1.77,1.77,0,0,0,1.28-.45,1.6,1.6,0,0,0,.47-1.22,1.42,1.42,0,0,0-.41-1.07,6.21,6.21,0,0,0-1.72-.9,5.5,5.5,0,0,1-2.08-1.2,2.35,2.35,0,0,1-.58-1.68,2.44,2.44,0,0,1,.75-1.91,2.84,2.84,0,0,1,2-.67,4.19,4.19,0,0,1,1.62.33,3.61,3.61,0,0,1,1.32.95l-.49.93a3.76,3.76,0,0,0-1.18-.87,3.1,3.1,0,0,0-1.29-.3,1.57,1.57,0,0,0-1.11.37,1.36,1.36,0,0,0-.42,1.08,1.29,1.29,0,0,0,.45,1,6.68,6.68,0,0,0,1.79.89,5.17,5.17,0,0,1,2,1.15,2.4,2.4,0,0,1,.55,1.67,2.77,2.77,0,0,1-.85,2.15A3.12,3.12,0,0,1,115.37,30.1Z"/>
      <path class="cls-1" d="M36.4,13.6V36.4H13.6V13.6H36.4m1.1-1.1h-25v25h25v-25Z"/>
      <path class="cls-1" d="M30.53,30V20h1.1V30Z"/>
      <polygon class="cls-1" points="27.97 20 27.97 30 26.87 30 26.87 21.68 23.67 30 22.67 30 19.47 21.68 19.47 30 18.37 30 18.37 20 19.96 20 23.17 28.36 26.38 20 27.97 20"/>
    </g>
  </g>
</svg>
