<svg xmlns="http://www.w3.org/2000/svg" viewBox="0 0 73 50">
  <defs>
    <style>
      .cls-1 {
        fill: #fff;
      }
    </style>
  </defs>
  <g id="bkg">
    <rect width="73" height="50"/>
  </g>
  <g id="_Layer_" data-name="&lt;Layer&gt;">
    <g>
      <g>
        <path class="cls-1" d="M42.26,21.19V14H44a2.08,2.08,0,0,1,1.64.68,2.62,2.62,0,0,1,.6,1.81v2.21a2.58,2.58,0,0,1-.6,1.79,2.12,2.12,0,0,1-1.64.66Zm.84-.74H44A1.29,1.29,0,0,0,45,20a1.93,1.93,0,0,0,.36-1.24V16.51A2,2,0,0,0,45,15.24,1.29,1.29,0,0,0,44,14.78H43.1Z"/>
        <path class="cls-1" d="M51,21.19l-.51-2.09h-2L48,21.19h-.83L49.06,14H50l1.89,7.15Zm-.69-2.85L49.51,15l-.81,3.33Z"/>
        <path class="cls-1" d="M53.7,21.19V14.78H51.89V14h4.48v.74H54.54v6.41Z"/>
        <path class="cls-1" d="M60.22,21.19l-.51-2.09h-2l-.51,2.09h-.84L58.28,14h.91l1.9,7.15Zm-.69-2.85L58.74,15l-.82,3.33Z"/>
        <polygon class="cls-1" points="42.26 35.96 42.26 25.96 43.36 25.96 43.36 34.99 47.04 34.99 47.04 35.96 42.26 35.96"/>
        <path class="cls-1" d="M53.39,36l-.71-3H49.83l-.72,3H48l2.64-10h1.22l2.65,10ZM50.07,32h2.37l-1.13-4.74h-.08Z"/>
        <path class="cls-1" d="M55.87,36V26h2.66a2.77,2.77,0,0,1,1.93.58,2.29,2.29,0,0,1,.63,1.75v.58a1.71,1.71,0,0,1-.33,1,1.92,1.92,0,0,1-1.12.73v.08a2.08,2.08,0,0,1,1.35.8,2.27,2.27,0,0,1,.41,1.37v.57a2.4,2.4,0,0,1-.69,1.88,3.07,3.07,0,0,1-2.12.63ZM57,35h1.78a1.54,1.54,0,0,0,1.17-.39,1.85,1.85,0,0,0,.37-1.27v-.38a1.85,1.85,0,0,0-.37-1.27,1.51,1.51,0,0,0-1.17-.4H57Zm0-4.7h1.6a1.41,1.41,0,0,0,1.08-.36A1.65,1.65,0,0,0,60,28.77v-.33a1.65,1.65,0,0,0-.33-1.14A1.44,1.44,0,0,0,58.58,27H57Z"/>
      </g>
      <path class="cls-1" d="M36.4,13.6V36.4H13.6V13.6H36.4m1.1-1.1h-25v25h25v-25Z"/>
      <path class="cls-1" d="M30.53,30V20h1.1V30Z"/>
      <polygon class="cls-1" points="27.97 20 27.97 30 26.87 30 26.87 21.68 23.67 30 22.67 30 19.47 21.68 19.47 30 18.37 30 18.37 20 19.96 20 23.17 28.36 26.38 20 27.97 20"/>
    </g>
  </g>
</svg>
