<svg xmlns="http://www.w3.org/2000/svg" viewBox="0 0 112 50">
  <g id="_Layer_" data-name="&lt;Layer&gt;">
    <g>
      <path d="M42.62,30V20H45a2.9,2.9,0,0,1,2.29.94,3.69,3.69,0,0,1,.84,2.54v3.1a3.58,3.58,0,0,1-.85,2.49A2.93,2.93,0,0,1,45,30Zm1.17-1H45a1.8,1.8,0,0,0,1.48-.62A2.69,2.69,0,0,0,47,26.6V23.45a2.78,2.78,0,0,0-.51-1.77A1.75,1.75,0,0,0,45,21h-1.2Z"/>
      <path d="M56.1,30l-.71-2.92H52.63L51.91,30H50.75l2.64-10h1.27l2.65,10Zm-1-4L54,21.36,52.89,26Z"/>
      <path d="M61.57,30V21H59V20h6.26v1H62.74v9Z"/>
      <path d="M72.36,30l-.71-2.92H68.88L68.17,30H67l2.64-10h1.27l2.65,10Zm-1-4-1.12-4.65L69.15,26Z"/>
      <path d="M76.91,30V20h1.17v9h3.65v1Z"/>
      <path d="M89.24,30l-.71-2.92H85.77L85.06,30H83.89l2.64-10h1.28l2.65,10Zm-1-4-1.11-4.65L86,26Z"/>
      <path d="M93.29,30V20H96a2.81,2.81,0,0,1,1.94.58,2.3,2.3,0,0,1,.63,1.77v.58a1.72,1.72,0,0,1-.33,1,1.9,1.9,0,0,1-1.13.74h0a2.09,2.09,0,0,1,1.36.81,2.29,2.29,0,0,1,.42,1.38v.57a2.45,2.45,0,0,1-.7,1.9A3.11,3.11,0,0,1,96,30Zm1.18-5.72H96a1.36,1.36,0,0,0,1-.35,1.61,1.61,0,0,0,.32-1.1V22.5a1.59,1.59,0,0,0-.32-1.1,1.4,1.4,0,0,0-1-.34H94.47Zm0,4.66h1.72a1.49,1.49,0,0,0,1.14-.38,1.77,1.77,0,0,0,.35-1.23V27a1.8,1.8,0,0,0-.35-1.24,1.45,1.45,0,0,0-1.14-.38H94.47Z"/>
      <path d="M36.4,13.6V36.4H13.6V13.6H36.4m1.1-1.1h-25v25h25v-25Z"/>
      <path d="M30.53,30V20h1.1V30Z"/>
      <polygon points="27.97 20 27.97 30 26.87 30 26.87 21.68 23.67 30 22.67 30 19.47 21.68 19.47 30 18.37 30 18.37 20 19.96 20 23.17 28.36 26.38 20 27.97 20"/>
    </g>
  </g>
</svg>
