<svg xmlns="http://www.w3.org/2000/svg" viewBox="0 0 132 50">
  <defs>
    <style>
      .cls-1 {
        fill: #fff;
      }
    </style>
  </defs>
  <g id="_Layer_" data-name="&lt;Layer&gt;">
    <g>
      <path class="cls-1" d="M42.62,30V20h5.54v1H43.79v3h3.84v1.07H43.79V29h4.37v1Z"/>
      <path class="cls-1" d="M51.57,30V20H54a2.9,2.9,0,0,1,2.29.94,3.69,3.69,0,0,1,.84,2.54v3.1a3.53,3.53,0,0,1-.85,2.49A2.93,2.93,0,0,1,54,30Zm1.17-1h1.2a1.83,1.83,0,0,0,1.49-.62,2.75,2.75,0,0,0,.5-1.74V23.45a2.84,2.84,0,0,0-.5-1.77A1.79,1.79,0,0,0,53.94,21h-1.2Z"/>
      <path class="cls-1" d="M63.19,30.12a2.4,2.4,0,0,1-2-.84,4.15,4.15,0,0,1-.66-2.58V20h1.17v6.75A3.59,3.59,0,0,0,62,28.57a1.3,1.3,0,0,0,1.16.52,1.31,1.31,0,0,0,1.17-.52,3.61,3.61,0,0,0,.33-1.82V20h1.18v6.7a4.15,4.15,0,0,1-.66,2.58A2.43,2.43,0,0,1,63.19,30.12Z"/>
      <path class="cls-1" d="M72.31,30.12a2.8,2.8,0,0,1-2.24-.86,3.81,3.81,0,0,1-.75-2.57V23.36a3.91,3.91,0,0,1,.75-2.61,2.8,2.8,0,0,1,2.24-.87,2.73,2.73,0,0,1,2.16.81,4.17,4.17,0,0,1,.79,2.55l-1.16.12a4,4,0,0,0-.49-1.91,1.49,1.49,0,0,0-1.3-.54,1.65,1.65,0,0,0-1.4.55,3.16,3.16,0,0,0-.41,1.86v3.41a3,3,0,0,0,.43,1.79,1.63,1.63,0,0,0,1.38.57,1.53,1.53,0,0,0,1.3-.51,3.84,3.84,0,0,0,.49-1.89l1.16.12a4.12,4.12,0,0,1-.79,2.52A2.75,2.75,0,0,1,72.31,30.12Z"/>
      <path class="cls-1" d="M83.32,30l-.71-2.93H79.84L79.13,30H78l2.64-10h1.27l2.65,10Zm-1-4-1.12-4.65L80.11,26Z"/>
      <path class="cls-1" d="M88.85,30V21H86.31V20h6.26v1H90v9Z"/>
      <path class="cls-1" d="M95.54,30V29h2.09V21H95.54V20h5.35v1H98.8V29h2.09v1Z"/>
      <path class="cls-1" d="M107,30.12a2.62,2.62,0,0,1-2.13-.88,4,4,0,0,1-.73-2.58V23.39a4.09,4.09,0,0,1,.73-2.62,2.65,2.65,0,0,1,2.14-.89,2.59,2.59,0,0,1,2.12.89,4.09,4.09,0,0,1,.73,2.62v3.27a4,4,0,0,1-.73,2.58A2.61,2.61,0,0,1,107,30.12Zm0-1a1.5,1.5,0,0,0,1.3-.55,3.33,3.33,0,0,0,.39-1.85V23.36a3.41,3.41,0,0,0-.39-1.89,1.79,1.79,0,0,0-2.6,0,3.41,3.41,0,0,0-.39,1.89v3.33a3.33,3.33,0,0,0,.39,1.85A1.5,1.5,0,0,0,107,29.09Z"/>
      <path class="cls-1" d="M117,30l-2.7-8.58V30h-1V20h1.54l2.78,8.64V20h1V30Z"/>
      <path class="cls-1" d="M36.4,13.6V36.4H13.6V13.6H36.4m1.1-1.1h-25v25h25v-25Z"/>
      <path class="cls-1" d="M30.53,30V20h1.1V30Z"/>
      <polygon class="cls-1" points="27.97 20 27.97 30 26.87 30 26.87 21.68 23.67 30 22.67 30 19.47 21.68 19.47 30 18.37 30 18.37 20 19.96 20 23.17 28.36 26.38 20 27.97 20"/>
    </g>
  </g>
</svg>
