<svg xmlns="http://www.w3.org/2000/svg" viewBox="0 0 125 50">
  <defs>
    <style>
      .cls-1 {
        fill: #4a3c89;
      }

      .cls-2 {
        fill: #fff;
      }
    </style>
  </defs>
  <g id="bkg">
    <rect class="cls-1" width="125" height="50"/>
  </g>
  <g id="_Layer_" data-name="&lt;Layer&gt;">
    <g>
      <path class="cls-2" d="M43.79,30H42.62V20h3.19a2.32,2.32,0,0,1,2.61,2.62v.77a3,3,0,0,1-.5,1.83,2.15,2.15,0,0,1-1.49.82l2.1,4H47.22l-2.08-3.91H43.79Zm0-4.94h2a1.5,1.5,0,0,0,1.16-.39,1.86,1.86,0,0,0,.36-1.28v-.78a1.69,1.69,0,0,0-.36-1.2A1.54,1.54,0,0,0,45.74,21h-2Z"/>
      <path class="cls-2" d="M52,30V20h5.54v1H53.17v3H57v1.07H53.17V29h4.36v1Z"/>
      <path class="cls-2" d="M63.4,30.1a4.76,4.76,0,0,1-1.71-.32,4.08,4.08,0,0,1-1.42-1l.52-.93a3.79,3.79,0,0,0,1.23.87,3.64,3.64,0,0,0,1.47.29,1.77,1.77,0,0,0,1.28-.45,1.56,1.56,0,0,0,.47-1.22,1.42,1.42,0,0,0-.41-1.07,6.27,6.27,0,0,0-1.71-.9A5.48,5.48,0,0,1,61,24.22a2.4,2.4,0,0,1-.58-1.68,2.44,2.44,0,0,1,.75-1.91,2.85,2.85,0,0,1,2-.67,4.14,4.14,0,0,1,1.61.33,3.52,3.52,0,0,1,1.32.95l-.48.93a3.91,3.91,0,0,0-1.19-.87,3,3,0,0,0-1.29-.3,1.58,1.58,0,0,0-1.11.37,1.35,1.35,0,0,0-.41,1.08,1.28,1.28,0,0,0,.44,1,6.84,6.84,0,0,0,1.79.89,5.17,5.17,0,0,1,2,1.15,2.41,2.41,0,0,1,.56,1.67,2.77,2.77,0,0,1-.86,2.15A3.12,3.12,0,0,1,63.4,30.1Z"/>
      <path class="cls-2" d="M69.82,30V20h5.53v1H71v3h3.84v1.07H71V29h4.36v1Z"/>
      <path class="cls-2" d="M83.65,30l-.71-2.93H80.18L79.47,30H78.3l2.64-10h1.28l2.65,10Zm-1-4-1.11-4.65L80.44,26Z"/>
      <path class="cls-2" d="M89.38,30H88.2V20h3.19a2.65,2.65,0,0,1,2,.66,2.68,2.68,0,0,1,.65,2v.77a2.93,2.93,0,0,1-.5,1.83A2.15,2.15,0,0,1,92,26l2.1,4H92.8l-2.07-3.91H89.38Zm0-4.94h2a1.48,1.48,0,0,0,1.15-.39,1.86,1.86,0,0,0,.36-1.28v-.78a1.69,1.69,0,0,0-.36-1.2A1.51,1.51,0,0,0,91.33,21h-2Z"/>
      <path class="cls-2" d="M100.35,30.12a2.8,2.8,0,0,1-2.24-.86,3.81,3.81,0,0,1-.75-2.57V23.36a3.91,3.91,0,0,1,.75-2.61,2.8,2.8,0,0,1,2.24-.87,2.7,2.7,0,0,1,2.15.81,4.1,4.1,0,0,1,.8,2.55l-1.16.12a4,4,0,0,0-.49-1.91,1.49,1.49,0,0,0-1.3-.54,1.65,1.65,0,0,0-1.4.55,3.16,3.16,0,0,0-.41,1.86v3.41A3,3,0,0,0,99,28.52a1.6,1.6,0,0,0,1.38.57,1.53,1.53,0,0,0,1.3-.51,3.84,3.84,0,0,0,.49-1.89l1.16.12a4.05,4.05,0,0,1-.8,2.52A2.73,2.73,0,0,1,100.35,30.12Z"/>
      <path class="cls-2" d="M106.71,30V20h1.17v4.05h3V20h1.18V30h-1.18V25.11h-3V30Z"/>
      <path class="cls-2" d="M36.4,13.6V36.4H13.6V13.6H36.4m1.1-1.1h-25v25h25v-25Z"/>
      <path class="cls-2" d="M30.53,30V20h1.1V30Z"/>
      <polygon class="cls-2" points="27.97 20 27.97 30 26.87 30 26.87 21.68 23.67 30 22.67 30 19.47 21.68 19.47 30 18.37 30 18.37 20 19.96 20 23.17 28.36 26.38 20 27.97 20"/>
    </g>
  </g>
</svg>
