<svg xmlns="http://www.w3.org/2000/svg" viewBox="0 0 655 250">
  <defs>
    <style>
      .cls-1 {
        fill: #fff;
      }
    </style>
  </defs>
  <g id="_Layer_" data-name="&lt;Layer&gt;">
    <g>
      <path class="cls-1" d="M227.26,150.5a23.2,23.2,0,0,1-8.56-1.62,19.81,19.81,0,0,1-7.13-4.74l2.63-4.62a18.79,18.79,0,0,0,6.15,4.33,18.37,18.37,0,0,0,7.35,1.46,8.88,8.88,0,0,0,6.41-2.24,8,8,0,0,0,2.34-6.1,7,7,0,0,0-2.06-5.36q-2.07-1.94-8.57-4.49-7.56-2.88-10.43-6a11.91,11.91,0,0,1-2.88-8.39q0-6.21,3.72-9.56t9.84-3.35a20.74,20.74,0,0,1,8.07,1.66,17.9,17.9,0,0,1,6.62,4.72l-2.44,4.68a19.17,19.17,0,0,0-5.93-4.37A15.31,15.31,0,0,0,226,105a8.05,8.05,0,0,0-5.57,1.84,6.91,6.91,0,0,0-2.06,5.41,6.37,6.37,0,0,0,2.22,5.09q2.22,1.91,9,4.47,7.25,2.68,10,5.75c1.86,2,2.78,4.82,2.78,8.32q0,6.87-4.28,10.75A15.47,15.47,0,0,1,227.26,150.5Z"/>
      <path class="cls-1" d="M270.6,150.62q-6.93,0-10.62-4.43t-3.69-12.88V116.94q0-8.56,3.69-13.07t10.69-4.49q6.93,0,10.59,4.49t3.66,13.07v16.37q0,8.44-3.66,12.88T270.6,150.62Zm0-5.18q4.56,0,6.5-2.75t1.94-9.25V116.81q0-6.68-1.94-9.47t-6.5-2.78q-4.56,0-6.5,2.78t-1.93,9.47v16.63q0,6.5,1.93,9.25T270.6,145.44Z"/>
      <path class="cls-1" d="M302.42,150V100h5.88v44.81h18.25V150Z"/>
      <path class="cls-1" d="M353,150.62q-6.75,0-10.06-4.21t-3.31-12.91V100h5.87v33.75c0,4.34.57,7.37,1.69,9.09s3.07,2.6,5.81,2.6,4.69-.87,5.82-2.6,1.68-4.75,1.68-9.09V100h5.88v33.5q0,8.69-3.31,12.91T353,150.62Z"/>
      <path class="cls-1" d="M394.4,150V105.19H381.71V100H413v5.19H400.27V150Z"/>
      <path class="cls-1" d="M429.14,150v-5.19h10.43V105.19H429.14V100h26.75v5.19H445.45v39.62h10.44V150Z"/>
      <path class="cls-1" d="M486.16,150.62q-6.93,0-10.62-4.43t-3.69-12.88V116.94q0-8.56,3.69-13.07t10.69-4.49q6.93,0,10.59,4.49t3.66,13.07v16.37q0,8.44-3.66,12.88T486.16,150.62Zm0-5.18c3,0,5.21-.92,6.5-2.75s1.94-4.92,1.94-9.25V116.81c0-4.45-.64-7.61-1.94-9.47s-3.45-2.78-6.5-2.78-5.21.93-6.5,2.78-1.93,5-1.93,9.47v16.63q0,6.5,1.93,9.25T486.16,145.44Z"/>
      <path class="cls-1" d="M537,150l-13.5-42.88V150H518.3V100H526l13.88,43.19V100h5.19v50Z"/>
      <path class="cls-1" d="M577.09,150.5a23.2,23.2,0,0,1-8.56-1.62,19.81,19.81,0,0,1-7.13-4.74l2.63-4.62a18.79,18.79,0,0,0,6.15,4.33,18.34,18.34,0,0,0,7.35,1.46,8.84,8.84,0,0,0,6.4-2.24,8,8,0,0,0,2.35-6.1,7,7,0,0,0-2.06-5.36q-2.07-1.94-8.57-4.49-7.56-2.88-10.43-6a11.91,11.91,0,0,1-2.88-8.39q0-6.21,3.72-9.56t9.84-3.35a20.74,20.74,0,0,1,8.07,1.66,17.9,17.9,0,0,1,6.62,4.72l-2.44,4.68a19.09,19.09,0,0,0-5.94-4.37,15.23,15.23,0,0,0-6.43-1.5,8.05,8.05,0,0,0-5.57,1.84,6.91,6.91,0,0,0-2.06,5.41,6.37,6.37,0,0,0,2.22,5.09q2.22,1.91,9,4.47,7.24,2.68,10,5.75c1.86,2,2.78,4.82,2.78,8.32q0,6.87-4.28,10.75A15.47,15.47,0,0,1,577.09,150.5Z"/>
      <path class="cls-1" d="M182.23,68V182h-114V68h114m5.5-5.5h-125v125h125V62.5Z"/>
      <path class="cls-1" d="M152.89,150V100h5.5v50Z"/>
      <polygon class="cls-1" points="140.1 100 140.1 150 134.6 150 134.6 108.42 118.58 150 113.59 150 97.57 108.42 97.57 150 92.07 150 92.07 100 100.04 100 116.08 141.8 132.13 100 140.1 100"/>
    </g>
  </g>
</svg>
