<svg xmlns="http://www.w3.org/2000/svg" viewBox="0 0 625 250">
  <defs>
    <style>
      .cls-1 {
        fill: #fff;
      }
    </style>
  </defs>
  <g id="_Layer_" data-name="&lt;Layer&gt;">
    <g>
      <path class="cls-1" d="M219.85,150H214V100h15.94q6.5,0,9.78,3.28t3.28,9.84v3.82c0,3.91-.83,7-2.5,9.18a10.92,10.92,0,0,1-7.44,4.07L243.54,150H237L226.6,130.44h-6.75Zm0-24.69h9.75c2.67,0,4.6-.65,5.79-2s1.78-3.44,1.78-6.4v-3.88c0-2.75-.6-4.75-1.78-6s-3.12-1.87-5.79-1.87h-9.75Z"/>
      <path class="cls-1" d="M260.84,150V100h27.69v5.19H266.72v14.93H285.9v5.32H266.72v19.37h21.81V150Z"/>
      <path class="cls-1" d="M317.91,150.5a23.29,23.29,0,0,1-8.57-1.62,19.86,19.86,0,0,1-7.12-4.74l2.63-4.62a18.79,18.79,0,0,0,6.15,4.33,18.34,18.34,0,0,0,7.35,1.46,8.85,8.85,0,0,0,6.4-2.24,8.05,8.05,0,0,0,2.35-6.1,7,7,0,0,0-2.07-5.36q-2.05-1.94-8.56-4.49-7.56-2.88-10.44-6a12,12,0,0,1-2.87-8.39q0-6.21,3.72-9.56t9.84-3.35a20.66,20.66,0,0,1,8.06,1.66,17.85,17.85,0,0,1,6.63,4.72L329,110.87A19.09,19.09,0,0,0,323,106.5a15.23,15.23,0,0,0-6.43-1.5,8.05,8.05,0,0,0-5.57,1.84,6.91,6.91,0,0,0-2.06,5.41,6.37,6.37,0,0,0,2.22,5.09q2.22,1.91,9,4.47,7.24,2.68,10,5.75a11.93,11.93,0,0,1,2.78,8.32q0,6.87-4.28,10.75A15.48,15.48,0,0,1,317.91,150.5Z"/>
      <path class="cls-1" d="M350,150V100h27.69v5.19H355.84v14.93H375v5.32H355.84v19.37h21.82V150Z"/>
      <path class="cls-1" d="M419.15,150l-3.56-14.63H401.78L398.21,150H392.4l13.19-50H412l13.25,50Zm-4.81-19.94-5.56-23.25-5.69,23.25Z"/>
      <path class="cls-1" d="M447.77,150H441.9V100h15.94q6.5,0,9.78,3.28t3.28,9.84v3.82c0,3.91-.84,7-2.5,9.18a10.92,10.92,0,0,1-7.44,4.07L471.46,150H464.9l-10.38-19.56h-6.75Zm0-24.69h9.75c2.67,0,4.6-.65,5.78-2s1.79-3.44,1.79-6.4v-3.88q0-4.12-1.79-6t-5.78-1.87h-9.75Z"/>
      <path class="cls-1" d="M502.63,150.62q-7.44,0-11.19-4.31t-3.75-12.87V116.81q0-8.69,3.75-13.06t11.19-4.37q7.25,0,10.78,4.06t4,12.75l-5.82.62q-.49-6.87-2.43-9.56c-1.3-1.79-3.46-2.69-6.5-2.69q-5,0-7,2.75t-2.07,9.31v17q0,6.12,2.16,9t6.91,2.85c3,0,5.2-.86,6.5-2.56s2.1-4.86,2.43-9.44l5.82.62q-.45,8.56-4,12.57T502.63,150.62Z"/>
      <path class="cls-1" d="M534.42,150V100h5.88v20.25h15V100h5.87v50H555.3V125.56h-15V150Z"/>
      <path class="cls-1" d="M182.89,68V182h-114V68h114m5.5-5.5h-125v125h125V62.5Z"/>
      <path class="cls-1" d="M153.54,150V100H159v50Z"/>
      <polygon class="cls-1" points="140.75 100 140.75 150 135.25 150 135.25 108.42 119.23 150 114.24 150 98.23 108.42 98.23 150 92.73 150 92.73 100 100.69 100 116.74 141.8 132.79 100 140.75 100"/>
    </g>
  </g>
</svg>
