<svg xmlns="http://www.w3.org/2000/svg" viewBox="0 0 625 250">
  <defs>
    <style>
      .cls-1 {
        fill: #4c3c90;
      }

      .cls-2 {
        fill: #fff;
      }
    </style>
  </defs>
  <g id="bkg">
    <rect class="cls-1" width="625" height="250"/>
  </g>
  <g id="_Layer_" data-name="&lt;Layer&gt;">
    <g>
      <path class="cls-2" d="M219,150h-5.88V100H229c4.33,0,7.6,1.09,9.78,3.28s3.28,5.47,3.28,9.84v3.82c0,3.91-.83,7-2.5,9.18a10.88,10.88,0,0,1-7.43,4.07L242.66,150h-6.57l-10.37-19.56H219Zm0-24.69h9.75c2.67,0,4.59-.65,5.78-2s1.78-3.44,1.78-6.4v-3.88q0-4.12-1.78-6c-1.19-1.25-3.11-1.87-5.78-1.87H219Z"/>
      <path class="cls-2" d="M260,150V100h27.68v5.19H265.83v14.93H285v5.32H265.83v19.37h21.81V150Z"/>
      <path class="cls-2" d="M317,150.5a23.2,23.2,0,0,1-8.56-1.62,19.9,19.9,0,0,1-7.13-4.74l2.63-4.62a18.72,18.72,0,0,0,6.16,4.33,18.32,18.32,0,0,0,7.34,1.46,8.88,8.88,0,0,0,6.41-2.24,8,8,0,0,0,2.34-6.1,7,7,0,0,0-2.06-5.36q-2.07-1.94-8.57-4.49-7.56-2.88-10.43-6a11.91,11.91,0,0,1-2.88-8.39q0-6.21,3.72-9.56t9.85-3.35a20.7,20.7,0,0,1,8.06,1.66,17.9,17.9,0,0,1,6.62,4.72l-2.43,4.68a19.32,19.32,0,0,0-5.94-4.37,15.31,15.31,0,0,0-6.44-1.5,8,8,0,0,0-5.56,1.84,6.87,6.87,0,0,0-2.06,5.41,6.37,6.37,0,0,0,2.21,5.09q2.22,1.91,9,4.47,7.26,2.68,10,5.75a11.89,11.89,0,0,1,2.79,8.32q0,6.87-4.29,10.75A15.45,15.45,0,0,1,317,150.5Z"/>
      <path class="cls-2" d="M349.08,150V100h27.69v5.19H355v14.93h19.19v5.32H355v19.37h21.81V150Z"/>
      <path class="cls-2" d="M418.27,150l-3.57-14.63H400.89L397.33,150h-5.81l13.18-50h6.38l13.25,50Zm-4.82-19.94-5.56-23.25-5.69,23.25Z"/>
      <path class="cls-2" d="M446.89,150H441V100H457q6.49,0,9.78,3.28t3.28,9.84v3.82c0,3.91-.83,7-2.5,9.18a10.88,10.88,0,0,1-7.43,4.07L470.58,150H464l-10.37-19.56h-6.75Zm0-24.69h9.75c2.66,0,4.59-.65,5.78-2s1.78-3.44,1.78-6.4v-3.88q0-4.12-1.78-6t-5.78-1.87h-9.75Z"/>
      <path class="cls-2" d="M501.74,150.62q-7.44,0-11.19-4.31t-3.75-12.87V116.81q0-8.69,3.75-13.06t11.19-4.37q7.25,0,10.78,4.06t4,12.75l-5.81.62c-.33-4.58-1.15-7.77-2.44-9.56s-3.46-2.69-6.5-2.69q-4.94,0-7,2.75t-2.06,9.31v17q0,6.12,2.16,9t6.9,2.85c3,0,5.21-.86,6.5-2.56s2.11-4.86,2.44-9.44l5.81.62q-.43,8.56-4,12.57T501.74,150.62Z"/>
      <path class="cls-2" d="M533.54,150V100h5.87v20.25h15V100h5.88v50h-5.88V125.56h-15V150Z"/>
      <path class="cls-2" d="M182,68V182H68V68H182m5.5-5.5H62.5v125h125V62.5Z"/>
      <path class="cls-2" d="M152.66,150V100h5.5v50Z"/>
      <polygon class="cls-2" points="139.87 100 139.87 150 134.37 150 134.37 108.42 118.35 150 113.36 150 97.34 108.42 97.34 150 91.84 150 91.84 100 99.81 100 115.85 141.8 131.9 100 139.87 100"/>
    </g>
  </g>
</svg>
