<svg xmlns="http://www.w3.org/2000/svg" viewBox="0 0 655 250">
  <defs>
    <style>
      .cls-1 {
        fill: #4c3c90;
      }

      .cls-2 {
        fill: #fff;
      }
    </style>
  </defs>
  <g id="bkg">
    <rect class="cls-1" width="655" height="250"/>
  </g>
  <g id="_Layer_" data-name="&lt;Layer&gt;">
    <g>
      <path class="cls-2" d="M227,150.5a23.2,23.2,0,0,1-8.56-1.62,19.81,19.81,0,0,1-7.13-4.74l2.63-4.62a18.79,18.79,0,0,0,6.15,4.33,18.34,18.34,0,0,0,7.35,1.46,8.85,8.85,0,0,0,6.4-2.24,8,8,0,0,0,2.35-6.1,7,7,0,0,0-2.07-5.36q-2.06-1.94-8.56-4.49-7.56-2.88-10.44-6a12,12,0,0,1-2.87-8.39q0-6.21,3.72-9.56t9.84-3.35a20.66,20.66,0,0,1,8.06,1.66,17.85,17.85,0,0,1,6.63,4.72l-2.44,4.68a19.09,19.09,0,0,0-5.94-4.37,15.23,15.23,0,0,0-6.43-1.5,8.05,8.05,0,0,0-5.57,1.84,6.91,6.91,0,0,0-2.06,5.41,6.37,6.37,0,0,0,2.22,5.09q2.22,1.91,9,4.47,7.25,2.68,10,5.75a11.93,11.93,0,0,1,2.78,8.32q0,6.87-4.28,10.75A15.47,15.47,0,0,1,227,150.5Z"/>
      <path class="cls-2" d="M270.37,150.62c-4.62,0-8.17-1.47-10.62-4.43s-3.69-7.25-3.69-12.88V116.94q0-8.56,3.69-13.07c2.45-3,6-4.49,10.68-4.49s8.16,1.5,10.6,4.49,3.65,7.36,3.65,13.07v16.37q0,8.44-3.65,12.88T270.37,150.62Zm0-5.18q4.56,0,6.5-2.75t1.94-9.25V116.81q0-6.68-1.94-9.47t-6.5-2.78q-4.56,0-6.5,2.78t-1.94,9.47v16.63q0,6.5,1.94,9.25T270.37,145.44Z"/>
      <path class="cls-2" d="M302.19,150V100h5.88v44.81h18.25V150Z"/>
      <path class="cls-2" d="M352.72,150.62q-6.75,0-10.06-4.21t-3.31-12.91V100h5.87v33.75c0,4.34.57,7.37,1.69,9.09s3.06,2.6,5.81,2.6,4.69-.87,5.82-2.6,1.68-4.75,1.68-9.09V100h5.88v33.5q0,8.69-3.31,12.91T352.72,150.62Z"/>
      <path class="cls-2" d="M394.16,150V105.19H381.48V100h31.31v5.19H400V150Z"/>
      <path class="cls-2" d="M428.91,150v-5.19h10.43V105.19H428.91V100h26.75v5.19H445.22v39.62h10.44V150Z"/>
      <path class="cls-2" d="M485.93,150.62q-6.93,0-10.62-4.43t-3.69-12.88V116.94q0-8.56,3.69-13.07T486,99.38q6.93,0,10.59,4.49t3.66,13.07v16.37q0,8.44-3.66,12.88T485.93,150.62Zm0-5.18q4.56,0,6.5-2.75t1.94-9.25V116.81q0-6.68-1.94-9.47t-6.5-2.78q-4.56,0-6.5,2.78t-1.93,9.47v16.63q0,6.5,1.93,9.25T485.93,145.44Z"/>
      <path class="cls-2" d="M536.75,150l-13.5-42.88V150h-5.19V100h7.69l13.88,43.19V100h5.18v50Z"/>
      <path class="cls-2" d="M576.86,150.5a23.2,23.2,0,0,1-8.56-1.62,19.81,19.81,0,0,1-7.13-4.74l2.63-4.62a18.79,18.79,0,0,0,6.15,4.33,18.34,18.34,0,0,0,7.35,1.46,8.85,8.85,0,0,0,6.4-2.24,8,8,0,0,0,2.35-6.1,7,7,0,0,0-2.07-5.36q-2.06-1.94-8.56-4.49-7.56-2.88-10.44-6a12,12,0,0,1-2.87-8.39q0-6.21,3.72-9.56t9.84-3.35a20.66,20.66,0,0,1,8.06,1.66,17.85,17.85,0,0,1,6.63,4.72l-2.44,4.68A19.09,19.09,0,0,0,582,106.5a15.23,15.23,0,0,0-6.43-1.5,8.05,8.05,0,0,0-5.57,1.84,6.91,6.91,0,0,0-2.06,5.41,6.37,6.37,0,0,0,2.22,5.09q2.22,1.91,9,4.47,7.25,2.68,10,5.75a11.93,11.93,0,0,1,2.78,8.32q0,6.87-4.28,10.75A15.48,15.48,0,0,1,576.86,150.5Z"/>
      <path class="cls-2" d="M182,68V182H68V68H182m5.5-5.5H62.5v125h125V62.5Z"/>
      <path class="cls-2" d="M152.66,150V100h5.5v50Z"/>
      <polygon class="cls-2" points="139.87 100 139.87 150 134.37 150 134.37 108.42 118.35 150 113.36 150 97.34 108.42 97.34 150 91.84 150 91.84 100 99.81 100 115.85 141.8 131.9 100 139.87 100"/>
    </g>
  </g>
</svg>
