<svg xmlns="http://www.w3.org/2000/svg" viewBox="0 0 560 250">
  <defs>
    <style>
      .cls-1 {
        fill: #4c3c90;
      }
    </style>
  </defs>
  <g id="_Layer_" data-name="&lt;Layer&gt;">
    <g>
      <path class="cls-1" d="M214.38,150V100h12.06q7.26,0,11.44,4.72t4.19,12.66v15.5q0,7.81-4.22,12.47T226.38,150Zm5.88-5.19h6q4.88,0,7.4-3.12t2.53-8.69V117.25q0-5.62-2.53-8.84t-7.4-3.22h-6Z"/>
      <path class="cls-1" d="M281.8,150l-3.56-14.62H264.42L260.86,150h-5.81l13.19-50h6.37l13.25,50ZM277,130.06l-5.57-23.25-5.68,23.25Z"/>
      <path class="cls-1" d="M309.13,150V105.19H296.44V100h31.31v5.19H315V150Z"/>
      <path class="cls-1" d="M363.08,150l-3.56-14.62H345.71L342.15,150h-5.82l13.19-50h6.38l13.25,50Zm-4.81-19.94-5.56-23.25L347,130.06Z"/>
      <path class="cls-1" d="M385.83,150V100h5.87v44.81H410V150Z"/>
      <path class="cls-1" d="M447.51,150,444,135.38H430.13L426.57,150h-5.81L434,100h6.37l13.25,50Zm-4.81-19.94-5.57-23.25-5.68,23.25Z"/>
      <path class="cls-1" d="M467.76,150V100h13.37q6.5,0,9.69,2.91t3.19,8.86v2.88a8.74,8.74,0,0,1-1.66,5.22,9.88,9.88,0,0,1-5.68,3.7h0a10.37,10.37,0,0,1,6.8,4,11.36,11.36,0,0,1,2.1,6.92v2.81q0,6.38-3.5,9.52T481.44,150Zm5.87-28.62h7.75c2.42,0,4.16-.58,5.22-1.72s1.59-3,1.59-5.53V112.5q0-3.81-1.59-5.5c-1.06-1.12-2.8-1.69-5.22-1.69h-7.75Zm0,23.31h8.63c2.62,0,4.52-.62,5.68-1.87s1.75-3.3,1.75-6.16v-1.87q0-4.31-1.75-6.2c-1.16-1.27-3.06-1.9-5.68-1.9h-8.63Z"/>
      <path class="cls-1" d="M183.29,68V182h-114V68h114m5.5-5.5h-125v125h125V62.5Z"/>
      <path class="cls-1" d="M154,150V100h5.5v50Z"/>
      <polygon class="cls-1" points="141.15 100 141.15 150 135.65 150 135.65 108.42 119.64 150 114.65 150 98.63 108.42 98.63 150 93.13 150 93.13 100 101.1 100 117.14 141.8 133.19 100 141.15 100"/>
    </g>
  </g>
</svg>
