<svg xmlns="http://www.w3.org/2000/svg" viewBox="0 0 660 250">
  <defs>
    <style>
      .cls-1 {
        fill: #4c3c90;
      }

      .cls-2 {
        fill: #fff;
      }
    </style>
  </defs>
  <g id="bkg">
    <rect class="cls-1" width="660" height="250"/>
  </g>
  <g id="_Layer_" data-name="&lt;Layer&gt;">
    <g>
      <path class="cls-2" d="M213.09,150V100h27.69v5.19H219v14.93h19.19v5.32H219v19.37h21.81V150Z"/>
      <path class="cls-2" d="M257.84,150V100h12.07q7.24,0,11.43,4.72t4.19,12.66v15.5q0,7.81-4.22,12.46T269.85,150Zm5.88-5.19h6q4.88,0,7.41-3.12c1.68-2.08,2.53-5,2.53-8.69V117.25c0-3.75-.85-6.7-2.53-8.84s-4.16-3.22-7.41-3.22h-6Z"/>
      <path class="cls-2" d="M316,150.62q-6.75,0-10.06-4.21t-3.32-12.91V100h5.88v33.75q0,6.51,1.69,9.09t5.81,2.6q4.13,0,5.81-2.6t1.69-9.09V100h5.87v33.5q0,8.69-3.31,12.91T316,150.62Z"/>
      <path class="cls-2" d="M361.54,150.62q-7.43,0-11.18-4.31t-3.75-12.87V116.81q0-8.69,3.75-13.06t11.18-4.37q7.26,0,10.79,4.06t4,12.75l-5.81.62q-.5-6.87-2.44-9.56c-1.29-1.79-3.45-2.69-6.5-2.69q-4.94,0-7,2.75t-2.06,9.31v17q0,6.12,2.16,9t6.9,2.85c3,0,5.21-.86,6.5-2.56s2.11-4.86,2.44-9.44l5.81.62q-.44,8.56-4,12.57T361.54,150.62Z"/>
      <path class="cls-2" d="M416.59,150,413,135.37H399.21L395.65,150h-5.81L403,100h6.37l13.25,50Zm-4.81-19.94-5.57-23.25-5.68,23.25Z"/>
      <path class="cls-2" d="M444.23,150V105.19H431.54V100h31.32v5.19H450.11V150Z"/>
      <path class="cls-2" d="M477.7,150v-5.19h10.44V105.19H477.7V100h26.75v5.19H494v39.62h10.43V150Z"/>
      <path class="cls-2" d="M534.75,150.62q-6.94,0-10.63-4.43t-3.68-12.88V116.94q0-8.56,3.68-13.07t10.69-4.49q6.95,0,10.6,4.49t3.65,13.07v16.37q0,8.44-3.65,12.88T534.75,150.62Zm0-5.18q4.56,0,6.5-2.75t1.94-9.25V116.81q0-6.68-1.94-9.47t-6.5-2.78q-4.56,0-6.5,2.78t-1.94,9.47v16.63q0,6.5,1.94,9.25T534.75,145.44Z"/>
      <path class="cls-2" d="M585.1,150l-13.5-42.88V150h-5.19V100h7.69L588,143.19V100h5.18v50Z"/>
      <path class="cls-2" d="M182,68V182H68V68H182m5.5-5.5H62.5v125h125V62.5Z"/>
      <path class="cls-2" d="M152.66,150V100h5.5v50Z"/>
      <polygon class="cls-2" points="139.87 100 139.87 150 134.37 150 134.37 108.42 118.35 150 113.36 150 97.34 108.42 97.34 150 91.84 150 91.84 100 99.81 100 115.85 141.8 131.9 100 139.87 100"/>
    </g>
  </g>
</svg>
