<svg xmlns="http://www.w3.org/2000/svg" viewBox="0 0 365 250">
  <defs>
    <style>
      .cls-1 {
        fill: #4c3c90;
      }

      .cls-2 {
        fill: #fff;
      }
    </style>
  </defs>
  <g id="bkg">
    <rect class="cls-1" width="365" height="250"/>
  </g>
  <g id="_Layer_" data-name="&lt;Layer&gt;">
    <g>
      <g>
        <path class="cls-2" d="M211.3,106V70.2h8.62a10.38,10.38,0,0,1,8.18,3.38q3,3.38,3,9V93.71a12.78,12.78,0,0,1-3,8.92,10.52,10.52,0,0,1-8.2,3.33Zm4.2-3.71h4.29a6.4,6.4,0,0,0,5.29-2.24,9.59,9.59,0,0,0,1.81-6.21V82.54a10,10,0,0,0-1.81-6.33,6.33,6.33,0,0,0-5.29-2.3H215.5Z"/>
        <path class="cls-2" d="M255,106,252.44,95.5h-9.88L240,106h-4.15l9.43-35.76h4.56L259.32,106ZM251.54,91.7l-4-16.63L243.5,91.7Z"/>
        <path class="cls-2" d="M268.52,106v-32h-9.07V70.2h22.39v3.71h-9.12V106Z"/>
        <path class="cls-2" d="M301.1,106,298.55,95.5h-9.87L286.13,106H282L291.4,70.2H296L305.44,106ZM297.66,91.7l-4-16.63L289.62,91.7Z"/>
        <polygon class="cls-2" points="211.29 179.8 211.29 129.8 216.81 129.8 216.81 174.97 235.21 174.97 235.21 179.8 211.29 179.8"/>
        <path class="cls-2" d="M267,179.8l-3.59-14.74H249.14l-3.59,14.74h-5.44l13.19-50h6.11l13.25,50Zm-16.61-19.7h11.86l-5.67-23.68h-.39Z"/>
        <path class="cls-2" d="M279.37,179.8v-50h13.28c4.29,0,7.53,1,9.63,2.88s3.15,4.86,3.15,8.78v2.9a8.57,8.57,0,0,1-1.64,5.15,9.84,9.84,0,0,1-5.6,3.65l0,.39a10.38,10.38,0,0,1,6.72,4A11.42,11.42,0,0,1,307,164.4v2.83c0,4.2-1.16,7.38-3.46,9.44s-5.86,3.13-10.58,3.13Zm5.52-5h8.89c2.69,0,4.67-.66,5.88-1.95s1.82-3.43,1.82-6.35v-1.89c0-2.92-.61-5.07-1.82-6.38s-3.19-2-5.88-2h-8.89Zm0-23.5h8c2.48,0,4.3-.61,5.41-1.8s1.66-3.11,1.66-5.71V142.2c0-2.61-.56-4.52-1.66-5.69s-2.93-1.76-5.41-1.76h-8Z"/>
      </g>
      <path class="cls-2" d="M182,68V182H68V68H182m5.5-5.5H62.5v125h125V62.5Z"/>
      <path class="cls-2" d="M152.66,150V100h5.5v50Z"/>
      <polygon class="cls-2" points="139.87 100 139.87 150 134.37 150 134.37 108.42 118.35 150 113.36 150 97.34 108.42 97.34 150 91.84 150 91.84 100 99.81 100 115.85 141.8 131.9 100 139.87 100"/>
    </g>
  </g>
</svg>
