<svg xmlns="http://www.w3.org/2000/svg" viewBox="0 0 660 250">
  <defs>
    <style>
      .cls-1 {
        fill: #4c3c90;
      }
    </style>
  </defs>
  <g id="_Layer_" data-name="&lt;Layer&gt;">
    <g>
      <path class="cls-1" d="M214.83,150V100h27.69v5.19H220.7v14.93h19.19v5.32H220.7v19.37h21.82V150Z"/>
      <path class="cls-1" d="M259.58,150V100h12.06q7.25,0,11.44,4.72t4.19,12.66v15.5q0,7.81-4.22,12.46T271.58,150Zm5.87-5.19h6q4.88,0,7.41-3.12t2.53-8.69V117.25q0-5.62-2.53-8.84t-7.41-3.22h-6Z"/>
      <path class="cls-1" d="M317.7,150.62q-6.75,0-10.06-4.21t-3.31-12.91V100h5.87v33.75c0,4.34.57,7.37,1.69,9.09s3.06,2.6,5.81,2.6,4.69-.87,5.82-2.6,1.68-4.75,1.68-9.09V100h5.88v33.5q0,8.69-3.31,12.91T317.7,150.62Z"/>
      <path class="cls-1" d="M363.28,150.62q-7.44,0-11.19-4.31t-3.75-12.87V116.81q0-8.69,3.75-13.06t11.19-4.37q7.25,0,10.78,4.06t4,12.75l-5.81.62q-.51-6.87-2.44-9.56t-6.5-2.69c-3.29,0-5.63.92-7,2.75s-2.06,4.94-2.06,9.31v17c0,4.08.71,7.07,2.15,9s3.74,2.85,6.91,2.85,5.21-.86,6.5-2.56,2.1-4.86,2.44-9.44l5.81.62q-.43,8.56-4,12.57T363.28,150.62Z"/>
      <path class="cls-1" d="M418.32,150l-3.56-14.63H401L397.38,150h-5.81l13.19-50h6.37l13.25,50Zm-4.81-19.94L408,106.81l-5.69,23.25Z"/>
      <path class="cls-1" d="M446,150V105.19H433.28V100h31.31v5.19H451.84V150Z"/>
      <path class="cls-1" d="M479.44,150v-5.19h10.43V105.19H479.44V100h26.75v5.19H495.75v39.62h10.44V150Z"/>
      <path class="cls-1" d="M536.48,150.62q-6.93,0-10.62-4.43t-3.69-12.88V116.94q0-8.56,3.69-13.07t10.69-4.49q6.93,0,10.59,4.49t3.66,13.07v16.37q0,8.44-3.66,12.88T536.48,150.62Zm0-5.18q4.56,0,6.5-2.75t1.94-9.25V116.81q0-6.68-1.94-9.47t-6.5-2.78q-4.56,0-6.5,2.78t-1.93,9.47v16.63q0,6.5,1.93,9.25T536.48,145.44Z"/>
      <path class="cls-1" d="M586.84,150l-13.5-42.88V150h-5.19V100h7.69l13.87,43.19V100h5.19v50Z"/>
      <path class="cls-1" d="M183.73,68V182h-114V68h114m5.5-5.5h-125v125h125V62.5Z"/>
      <path class="cls-1" d="M154.39,150V100h5.5v50Z"/>
      <polygon class="cls-1" points="141.6 100 141.6 150 136.1 150 136.1 108.42 120.08 150 115.09 150 99.08 108.42 99.08 150 93.58 150 93.58 100 101.54 100 117.59 141.8 133.63 100 141.6 100"/>
    </g>
  </g>
</svg>
