<svg xmlns="http://www.w3.org/2000/svg" viewBox="0 0 365 250">
  <defs>
    <style>
      .cls-1 {
        fill: #4c3c90;
      }
    </style>
  </defs>
  <g id="_Layer_" data-name="&lt;Layer&gt;">
    <g>
      <g>
        <path class="cls-1" d="M209.5,106V70.2h8.62a10.38,10.38,0,0,1,8.18,3.38q3,3.38,3,9V93.71a12.78,12.78,0,0,1-3,8.92,10.52,10.52,0,0,1-8.2,3.33Zm4.2-3.71H218a6.4,6.4,0,0,0,5.29-2.24,9.59,9.59,0,0,0,1.81-6.21V82.54a10,10,0,0,0-1.81-6.33,6.33,6.33,0,0,0-5.29-2.3H213.7Z"/>
        <path class="cls-1" d="M253.19,106,250.64,95.5h-9.88L238.21,106h-4.15l9.43-35.76h4.56L257.52,106ZM249.74,91.7l-4-16.63L241.7,91.7Z"/>
        <path class="cls-1" d="M266.72,106v-32h-9.07V70.2H280v3.71h-9.12V106Z"/>
        <path class="cls-1" d="M299.3,106,296.75,95.5h-9.87L284.33,106h-4.16L289.6,70.2h4.56L303.64,106ZM295.86,91.7l-4-16.63L287.82,91.7Z"/>
        <polygon class="cls-1" points="209.5 179.8 209.5 129.8 215.01 129.8 215.01 174.97 233.41 174.97 233.41 179.8 209.5 179.8"/>
        <path class="cls-1" d="M265.17,179.8l-3.59-14.74H247.34l-3.59,14.74h-5.44l13.19-50h6.11l13.25,50Zm-16.61-19.7h11.86l-5.67-23.68h-.39Z"/>
        <path class="cls-1" d="M277.57,179.8v-50h13.28c4.29,0,7.53,1,9.63,2.88s3.15,4.86,3.15,8.78v2.9a8.57,8.57,0,0,1-1.64,5.15,9.84,9.84,0,0,1-5.6,3.65l0,.39a10.38,10.38,0,0,1,6.72,4,11.42,11.42,0,0,1,2.07,6.87v2.83c0,4.2-1.16,7.38-3.46,9.44s-5.86,3.13-10.58,3.13Zm5.52-5H292c2.69,0,4.67-.66,5.88-1.95s1.82-3.43,1.82-6.35v-1.89c0-2.92-.61-5.07-1.82-6.38s-3.19-2-5.88-2h-8.89Zm0-23.5h8c2.48,0,4.3-.61,5.41-1.8s1.66-3.11,1.66-5.71V142.2c0-2.61-.56-4.52-1.66-5.69s-2.93-1.76-5.41-1.76h-8Z"/>
      </g>
      <path class="cls-1" d="M180.2,68V182H66.2V68h114m5.5-5.5H60.7v125h125V62.5Z"/>
      <path class="cls-1" d="M150.86,150V100h5.5v50Z"/>
      <polygon class="cls-1" points="138.06 100 138.06 150 132.56 150 132.56 108.42 116.55 150 111.56 150 95.54 108.42 95.54 150 90.04 150 90.04 100 98.01 100 114.05 141.8 130.1 100 138.06 100"/>
    </g>
  </g>
</svg>
