<svg xmlns="http://www.w3.org/2000/svg" viewBox="0 0 560 250">
  <defs>
    <style>
      .cls-1 {
        fill: #4c3c90;
      }

      .cls-2 {
        fill: #fff;
      }
    </style>
  </defs>
  <g id="bkg">
    <rect class="cls-1" width="560" height="250"/>
  </g>
  <g id="_Layer_" data-name="&lt;Layer&gt;">
    <g>
      <path class="cls-2" d="M213.09,150V100h12.07q7.25,0,11.43,4.72t4.19,12.66v15.5q0,7.81-4.22,12.47T225.09,150Zm5.88-5.19h6q4.88,0,7.4-3.12t2.54-8.69V117.25q0-5.62-2.54-8.84t-7.4-3.22h-6Z"/>
      <path class="cls-2" d="M280.51,150,277,135.38H263.13L259.57,150h-5.81L267,100h6.37l13.25,50Zm-4.81-19.94-5.57-23.25-5.68,23.25Z"/>
      <path class="cls-2" d="M307.84,150V105.19H295.15V100h31.32v5.19H313.71V150Z"/>
      <path class="cls-2" d="M361.79,150l-3.56-14.62H344.42L340.86,150H335l13.19-50h6.38l13.25,50ZM357,130.06l-5.56-23.25-5.69,23.25Z"/>
      <path class="cls-2" d="M384.54,150V100h5.88v44.81h18.24V150Z"/>
      <path class="cls-2" d="M446.22,150l-3.56-14.62H428.85L425.28,150h-5.81l13.19-50H439l13.25,50Zm-4.81-19.94-5.56-23.25-5.69,23.25Z"/>
      <path class="cls-2" d="M466.47,150V100h13.37q6.5,0,9.69,2.91t3.19,8.86v2.88a8.74,8.74,0,0,1-1.66,5.22,9.85,9.85,0,0,1-5.68,3.7h0a10.41,10.41,0,0,1,6.81,4,11.42,11.42,0,0,1,2.09,6.92v2.81q0,6.38-3.5,9.52T480.15,150Zm5.87-28.62h7.75c2.42,0,4.16-.58,5.22-1.72s1.59-3,1.59-5.53V112.5q0-3.81-1.59-5.5c-1.06-1.12-2.8-1.69-5.22-1.69h-7.75Zm0,23.31H481c2.62,0,4.52-.62,5.68-1.87s1.75-3.3,1.75-6.16v-1.87q0-4.31-1.75-6.2c-1.16-1.27-3.06-1.9-5.68-1.9h-8.63Z"/>
      <path class="cls-2" d="M182,68V182H68V68H182m5.5-5.5H62.5v125h125V62.5Z"/>
      <path class="cls-2" d="M152.66,150V100h5.5v50Z"/>
      <polygon class="cls-2" points="139.87 100 139.87 150 134.37 150 134.37 108.42 118.35 150 113.36 150 97.34 108.42 97.34 150 91.84 150 91.84 100 99.81 100 115.85 141.8 131.9 100 139.87 100"/>
    </g>
  </g>
</svg>
